<svg class="svg-icon" style="width: 1em; height: 1em;vertical-align: middle;fill: currentColor;overflow: hidden;" viewBox="0 0 1024 1024" version="1.1" xmlns="http://www.w3.org/2000/svg"><path d="M480 256a138.666667 138.666667 0 0 1 138.666667-138.666667A138.666667 138.666667 0 0 1 757.333333 256c0 17.92 14.08 32 32 32s32-14.08 32-32v-32h64V256a96 96 0 0 1-96 96A96 96 0 0 1 693.333333 256a74.666667 74.666667 0 0 0-74.666666-74.666667A74.666667 74.666667 0 0 0 544 256H597.333333v55.04c123.306667 36.693333 213.333333 151.04 213.333334 286.293333a298.666667 298.666667 0 0 1-298.666667 298.666667 298.666667 298.666667 0 0 1-298.666667-298.666667c0-135.253333 90.026667-249.6 213.333334-286.293333V256h53.333333M938.666667 256h85.333333v42.666667h-85.333333V256m-128-85.333333V85.333333h42.666666v85.333334h-42.666666m81.493333 16.213333l60.586667-60.586667 30.293333 30.293334-60.586667 60.586666-30.293333-30.293333z" fill="" /></svg>