<svg class="svg-icon" style="width: 1em;height: 1em;vertical-align: middle;fill: currentColor;overflow: hidden;" viewBox="0 0 1024 1024" version="1.1" xmlns="http://www.w3.org/2000/svg"><path d="M988.854857 576.786286c23.68-11.446857 35.145143-27.648 35.145143-44.251429 0-16.182857-11.465143-31.195429-35.145143-39.497143l-192.420571-66.377143 82.578285-168.685714a56.137143 56.137143 0 0 0 5.924572-25.289143c0-22.912-17.371429-39.899429-39.899429-39.899428-8.283429 0-16.585143 1.590857-25.289143 5.924571l-174.610285 85.339429-90.88-194.761143c-9.874286-21.741714-26.057143-32.804571-42.24-32.804572-15.817143 0-32 11.062857-41.892572 32.804572l-90.88 194.742857-174.610285-85.321143a57.270857 57.270857 0 0 0-25.270858-5.924571c-22.528 0-40.301714 17.005714-40.301714 39.899428 0 7.899429 1.974857 16.603429 6.326857 25.289143l82.56 168.685714-192.786285 66.377143C12.251429 500.937143 0 516.736 0 532.937143c0 16.201143 11.849143 32.402286 35.163429 43.849143l184.502857 88.502857L120.082286 876.251429a59.885714 59.885714 0 0 0-6.710857 26.861714c0 20.534857 13.824 35.163429 33.170285 35.163428 8.301714 0 17.389714-2.761143 26.88-8.301714l235.849143-139.465143 64.786286 199.917715C481.572571 1012.553143 496.603429 1024 512 1024c16.201143 0 30.811429-11.465143 37.924571-33.572571L615.131429 790.491429l235.849142 139.465142c9.490286 5.540571 18.578286 7.899429 26.477715 7.899429 18.962286 0 33.572571-13.824 33.572571-34.377143 0-8.283429-2.377143-17.773714-6.710857-27.245714l-99.949714-210.962286z m-49.389714-43.446857v2.742857l-202.276572 88.502857c-7.497143 3.163429-11.062857 8.301714-11.062857 14.628571 0 2.377143 0.786286 5.522286 2.377143 8.283429l104.283429 209.792-2.377143 2.377143-232.283429-146.980572c-3.949714-1.974857-7.497143-3.547429-10.660571-3.547428-6.326857 0-11.062857 4.754286-13.44 12.635428l-60.434286 204.653715h-2.779428L450.377143 721.773714c-2.377143-7.899429-7.497143-12.635429-13.824-12.635428-3.163429 0-6.729143 1.572571-10.276572 3.547428l-232.301714 146.962286-2.377143-2.377143 104.301715-209.773714a17.755429 17.755429 0 0 0 2.377142-8.283429c0-6.326857-3.949714-11.465143-11.062857-14.628571l-202.276571-88.502857v-2.742857l209.773714-64.804572c7.899429-2.377143 12.251429-7.497143 12.251429-13.824a17.481143 17.481143 0 0 0-2.761143-9.472l-94.025143-180.150857 1.974857-1.974857 181.339429 95.597714c3.547429 1.974857 6.710857 2.761143 9.472 2.761143 5.924571 0 10.678857-3.547429 13.824-10.660571l94.025143-211.364572h2.779428l94.006857 211.382857c2.779429 7.094857 7.515429 10.642286 13.44 10.642286 3.163429 0 6.326857-0.786286 9.874286-2.742857l181.339429-95.634286 1.974857 1.993143-94.427429 180.150857c-1.572571 3.145143-2.742857 6.308571-2.742857 9.472 0 6.326857 4.333714 11.465143 12.617143 13.824z"  /></svg>