<svg version="1.0" xmlns="http://www.w3.org/2000/svg"
 width="660.000000pt" height="500.000000pt" viewBox="0 0 660.000000 500.000000">

<g transform="translate(0.000000,500.000000) scale(0.100000,-0.100000)" stroke="black">
<path d="M840 4837 c0 -129 -69 -728 -91 -784 -6 -17 -17 -23 -38 -23 -36 0
-35 -2 -60 165 -18 116 -25 184 -47 423 -3 35 -7 62 -9 60 -2 -2 -8 -55 -15
-118 -14 -141 -53 -400 -75 -497 -15 -65 -20 -73 -48 -82 -16 -6 -31 -10 -33
-9 -15 18 -62 274 -79 436 -4 35 -9 61 -11 59 -3 -3 -63 -575 -64 -607 0 -3
31 -20 69 -39 261 -126 427 -382 486 -746 8 -49 15 -109 15 -132 0 -74 17 -46
24 39 19 233 105 470 225 621 66 83 184 177 279 221 38 18 62 36 62 45 -1 48
-58 593 -63 597 -2 3 -8 -26 -11 -63 -15 -148 -65 -415 -80 -431 -2 -1 -16 3
-33 9 -29 10 -32 15 -52 112 -32 157 -49 268 -66 431 -8 83 -17 151 -19 153
-2 2 -7 -33 -10 -79 -12 -143 -37 -359 -54 -463 l-17 -100 -34 0 c-30 0 -36 4
-43 30 -16 59 -57 394 -74 603 -10 116 -21 212 -26 212 -4 0 -8 -19 -8 -43Z" fill="currentColor"/>
<path d="M1722 4185 c42 -23 88 -67 88 -86 0 -4 -54 -125 -119 -268 -112 -244
-159 -329 -210 -375 -12 -11 -21 -23 -21 -28 0 -9 373 -11 383 -1 4 3 -11 19
-33 36 -45 32 -70 73 -70 111 0 26 134 331 145 331 4 0 57 -120 118 -267 62
-147 115 -268 118 -268 4 0 62 122 129 270 68 149 127 267 131 263 4 -5 39
-84 78 -177 81 -192 86 -223 41 -268 -16 -16 -30 -31 -30 -34 0 -7 426 -5 433
2 4 4 -15 30 -41 59 -42 46 -63 87 -165 331 -71 169 -117 292 -117 312 0 23 8
41 26 57 l27 25 -204 0 -204 0 37 -30 c20 -17 40 -39 43 -49 6 -19 -101 -271
-114 -271 -3 0 -39 79 -79 175 l-74 175 -181 0 -182 -1 47 -24Z" fill="currentColor"/>
<path d="M3079 4181 c17 -16 31 -36 31 -45 0 -8 -50 -124 -111 -257 -125 -276
-122 -245 -36 -354 46 -58 130 -135 148 -135 5 0 9 17 9 38 0 54 26 146 53
190 33 51 93 103 147 127 l45 20 -126 5 -126 5 69 150 c38 82 72 153 76 157 9
8 232 -522 232 -552 0 -29 -26 -76 -45 -84 -9 -3 -13 -10 -10 -16 8 -12 435
-14 435 -2 0 5 -10 17 -21 28 -46 42 -84 114 -193 373 -62 149 -116 281 -120
295 -4 18 1 33 20 55 l26 31 -267 0 -267 0 31 -29Z" fill="currentColor"/>
<path d="M4138 4195 c-84 -23 -142 -57 -209 -124 -81 -81 -110 -148 -110 -256
0 -168 109 -311 284 -372 53 -18 199 -23 357 -13 57 4 71 1 111 -22 43 -25 82
-72 107 -128 8 -19 11 44 11 258 l1 282 -187 -1 c-150 0 -184 -3 -169 -12 75
-48 76 -50 76 -167 l0 -108 -36 -12 c-80 -27 -166 17 -211 107 -26 55 -28 65
-28 188 1 110 4 137 21 175 44 95 128 144 207 120 49 -14 113 -72 129 -116 6
-19 15 -34 19 -34 3 0 16 21 27 48 11 26 37 82 56 125 l35 77 -222 -1 c-148 0
-238 -5 -269 -14Z" fill="currentColor"/>
<path d="M4828 4194 c12 -8 31 -33 43 -55 19 -38 20 -55 17 -333 l-3 -294 -32
-40 c-18 -23 -33 -43 -33 -46 0 -3 90 -6 200 -6 110 0 200 4 200 8 0 5 -9 17
-21 28 -52 47 -54 60 -54 344 0 146 4 282 8 303 4 20 22 53 39 72 l30 35 -208
0 c-192 0 -207 -1 -186 -16Z" fill="currentColor"/>
<path d="M5611 4194 c-126 -34 -231 -119 -284 -231 -46 -98 -46 -198 0 -296
56 -118 175 -209 310 -237 32 -7 95 -10 143 -8 108 5 193 44 283 128 54 51
108 120 93 120 -3 0 -41 -24 -84 -54 -137 -93 -254 -124 -334 -88 -88 38 -130
129 -130 283 -1 166 51 270 150 299 78 24 168 -24 207 -110 10 -22 21 -40 24
-40 6 1 111 229 111 243 0 14 -431 7 -489 -9Z" fill="currentColor"/>
<path d="M6201 4184 c-45 -58 -10 -144 59 -144 43 0 90 47 90 90 0 35 -38 80
-67 79 -14 0 -12 -3 6 -10 55 -22 68 -83 26 -124 -31 -32 -74 -33 -103 -2 -39
42 -21 120 31 130 22 4 22 4 0 6 -13 0 -30 -10 -42 -25Z" fill="currentColor"/>
<path d="M6230 4129 c0 -31 4 -48 10 -44 6 3 10 13 10 22 0 14 4 13 23 -5 l22
-21 2 44 c1 37 -2 44 -20 49 -43 11 -47 8 -47 -45z m53 16 c1 -5 -6 -11 -15
-13 -11 -2 -18 3 -18 13 0 17 30 18 33 0Z" fill="currentColor"/>
<path d="M2450 3237 c-25 -9 -40 -23 -54 -50 -38 -78 7 -152 92 -152 72 0 82
7 82 60 l0 45 -42 0 c-37 0 -40 -2 -24 -13 10 -7 17 -22 14 -33 -5 -27 -43
-29 -68 -4 -49 49 4 134 69 112 29 -10 31 -9 31 14 0 17 -5 24 -19 24 -11 0
-25 2 -33 4 -7 3 -29 0 -48 -7Z" fill="currentColor"/>
<path d="M2733 3235 c-6 -11 -29 -59 -51 -107 l-41 -88 28 0 c20 0 30 6 34 20
4 15 14 20 37 20 23 0 33 -5 37 -20 4 -14 14 -20 34 -20 16 0 29 3 28 8 0 4
-22 52 -48 107 -42 88 -49 98 -58 80z m25 -100 c11 -23 10 -25 -14 -25 -20 0
-25 4 -20 16 3 9 6 20 6 25 0 18 17 8 28 -16Z" fill="currentColor"/>
<path d="M4078 3145 l-3 -105 30 0 c30 0 30 0 27 50 -2 27 0 50 4 50 5 0 34
-26 66 -57 l58 -57 0 91 c0 50 3 98 6 107 5 13 -1 16 -31 16 -31 0 -36 -2 -26
-14 7 -8 11 -33 9 -55 l-3 -40 -67 60 -67 60 -3 -106Z" fill="currentColor"/>
<path d="M4410 3233 c-66 -34 -80 -110 -31 -165 26 -29 36 -33 78 -33 73 0 83
7 83 60 l0 45 -42 0 c-34 -1 -39 -3 -25 -11 21 -12 22 -48 1 -56 -24 -9 -63
14 -70 42 -16 63 28 107 88 86 26 -9 28 -8 28 15 0 19 -5 24 -24 24 -13 0 -30
2 -38 5 -7 3 -29 -3 -48 -12Z" fill="currentColor"/>
<path d="M1480 3216 c0 -20 4 -22 26 -18 l26 5 -4 -82 -3 -81 30 0 30 0 -3 81
-4 82 26 -5 c22 -4 26 -2 26 18 0 23 -3 24 -75 24 -72 0 -75 -1 -75 -24Z" fill="currentColor"/>
<path d="M1720 3225 c8 -10 11 -42 9 -100 l-4 -85 30 0 c30 0 30 1 27 40 l-4
40 37 0 37 0 -4 -40 c-3 -39 -3 -40 27 -40 l30 0 0 100 0 100 -30 0 c-30 0
-30 -1 -27 -40 l4 -40 -37 0 -37 0 4 40 4 40 -39 0 c-34 0 -38 -2 -27 -15Z" fill="currentColor"/>
<path d="M2010 3221 c14 -27 13 -154 -2 -169 -9 -9 4 -12 60 -12 67 0 72 2 72
21 0 18 -4 21 -28 16 -35 -7 -55 5 -50 29 3 14 12 19 36 18 27 -2 32 2 32 20
0 17 -6 21 -32 21 -24 0 -34 5 -36 19 -3 16 1 18 37 14 37 -3 41 -1 41 19 0
22 -4 23 -70 23 -67 0 -70 -1 -60 -19Z" fill="currentColor"/>
<path d="M2900 3216 c0 -20 4 -22 26 -18 l26 5 -4 -82 -3 -81 30 0 30 0 -3 81
-4 82 26 -5 c22 -4 26 -2 26 18 0 23 -3 24 -75 24 -72 0 -75 -1 -75 -24Z" fill="currentColor"/>
<path d="M3135 3140 l0 -100 32 0 c31 0 31 1 26 40 l-6 40 43 0 42 0 -4 -40
c-3 -39 -3 -40 27 -40 l30 0 0 100 0 100 -32 0 c-31 0 -31 -1 -26 -41 l6 -40
-39 3 c-32 2 -40 7 -42 26 -2 13 2 30 8 38 11 12 6 14 -26 14 l-39 0 0 -100Z" fill="currentColor"/>
<path d="M3425 3140 l0 -100 68 0 c65 0 67 1 67 25 0 22 -3 24 -25 15 -34 -13
-57 -2 -53 24 2 17 9 21 36 20 27 -2 32 1 32 21 0 21 -3 23 -35 18 -31 -5 -35
-3 -35 17 0 20 4 22 40 18 36 -3 40 -1 40 19 0 22 -4 23 -67 23 l-68 0 0 -100Z" fill="currentColor"/>
<path d="M3660 3225 c8 -10 11 -42 9 -100 l-4 -85 33 0 c29 0 32 2 22 19 -5
11 -10 47 -10 80 0 58 1 61 24 61 40 0 43 -43 3 -51 -17 -4 -15 -9 15 -54 24
-37 40 -51 61 -53 l28 -3 -27 41 c-27 40 -27 42 -10 70 32 55 -7 90 -100 90
-49 0 -55 -2 -44 -15Z" fill="currentColor"/>
<path d="M3925 3140 l0 -100 30 0 30 0 0 100 0 100 -30 0 -30 0 0 -100Z" fill="currentColor"/>
<path d="M3202 2484 c-13 -20 -41 -44 -65 -55 -41 -18 -88 -19 -1357 -21 -723
-1 -1261 -5 -1195 -8 66 -4 659 -8 1318 -9 1340 -1 1243 4 1296 -72 14 -21 28
-38 31 -38 3 0 17 17 32 38 55 77 -65 71 1480 73 760 0 1343 4 1293 9 -49 4
-670 8 -1380 9 -970 1 -1299 4 -1325 13 -21 7 -46 29 -65 54 -16 23 -32 42
-35 42 -3 1 -15 -15 -28 -35Z" fill="currentColor"/>
<path d="M5359 1847 c-47 -31 -60 -78 -60 -212 0 -142 17 -203 92 -338 70
-126 86 -168 99 -259 11 -79 -2 -284 -20 -302 -37 -36 -58 121 -41 303 6 63
10 116 8 117 -1 1 -33 -16 -71 -39 l-68 -41 4 -145 c3 -131 6 -151 28 -195 33
-67 67 -90 130 -90 63 0 97 23 129 89 21 41 26 67 29 162 7 175 -17 271 -103
418 -81 137 -98 197 -99 337 -1 84 3 121 12 130 35 35 58 -77 47 -229 l-8 -95
49 28 c82 46 77 37 70 156 -3 59 -12 124 -19 145 -16 51 -66 83 -127 83 -32 0
-58 -7 -81 -23Z" fill="currentColor"/>
<path d="M390 1852 c0 -4 9 -13 20 -20 20 -12 20 -23 20 -561 0 -535 0 -548
-20 -566 -11 -10 -20 -22 -20 -27 0 -4 47 -8 105 -8 58 0 105 4 105 8 0 5 -9
17 -20 27 -19 17 -20 31 -20 292 0 215 3 274 13 271 21 -7 47 -72 53 -136 5
-42 11 -62 20 -62 11 0 14 45 14 245 0 211 -2 245 -15 245 -10 0 -15 -10 -15
-32 0 -66 -34 -148 -62 -148 -4 0 -8 92 -8 205 0 202 0 205 21 205 53 0 105
-104 131 -262 7 -45 16 -68 24 -68 11 0 14 39 14 200 l0 200 -180 0 c-99 0
-180 -3 -180 -8Z" fill="currentColor"/>
<path d="M880 1855 c0 -3 9 -14 20 -25 20 -20 20 -33 20 -563 0 -531 0 -544
-20 -562 -11 -10 -20 -22 -20 -27 0 -4 45 -8 100 -8 55 0 100 2 100 5 0 3 -9
18 -20 33 -20 27 -20 39 -18 571 3 503 4 544 21 555 9 7 17 16 17 20 0 3 -45
6 -100 6 -55 0 -100 -2 -100 -5Z" fill="currentColor"/>
<path d="M1260 1851 c0 -5 7 -14 15 -21 13 -11 15 -86 15 -565 0 -479 -2 -554
-15 -565 -28 -24 -15 -30 65 -30 44 0 80 3 80 6 0 3 -9 17 -20 31 -19 25 -20
41 -20 376 0 193 2 348 5 345 3 -2 28 -164 55 -359 28 -195 53 -364 55 -376 5
-20 11 -23 60 -23 l55 0 0 568 c0 484 2 571 15 588 8 10 15 22 15 27 0 4 -34
7 -75 7 -78 0 -87 -4 -57 -26 15 -11 17 -41 20 -325 2 -173 0 -311 -3 -307 -5
4 -84 559 -95 656 -1 7 -170 1 -170 -7Z" fill="currentColor"/>
<path d="M1880 1841 c0 -11 -20 -266 -45 -568 -42 -501 -47 -549 -65 -565 -36
-30 -24 -38 60 -38 80 0 93 6 65 30 -16 13 -20 74 -9 154 7 45 8 47 38 44 l31
-3 3 -86 c2 -68 -1 -89 -13 -99 -8 -7 -15 -19 -15 -26 0 -11 20 -14 90 -14 93
0 104 6 72 38 -15 15 -21 80 -50 552 -18 294 -35 550 -38 568 -5 32 -5 32 -64
32 -53 0 -60 -2 -60 -19z m64 -653 l7 -208 -25 0 c-31 0 -31 -3 -15 220 10
151 17 206 23 199 2 -2 6 -97 10 -211Z" fill="currentColor"/>
<path d="M2230 1847 c0 -7 9 -18 20 -25 20 -12 20 -23 20 -550 0 -458 -2 -541
-15 -558 -32 -42 -24 -44 150 -44 l165 0 0 246 c0 225 -1 245 -17 242 -12 -2
-20 -23 -30 -83 -26 -159 -84 -325 -114 -325 -5 0 -10 223 -11 518 -3 478 -2
519 15 544 9 15 17 32 17 38 0 6 -37 10 -100 10 -74 0 -100 -3 -100 -13Z" fill="currentColor"/>
<path d="M2850 1851 c0 -5 11 -16 25 -25 l25 -16 0 -546 0 -545 -25 -23 c-13
-13 -22 -26 -18 -29 9 -9 213 -9 213 0 0 4 -10 17 -22 31 -23 23 -23 29 -26
293 -3 241 -1 269 13 269 22 0 52 -71 60 -142 5 -39 12 -58 21 -58 12 0 14 43
14 245 0 194 -3 245 -13 245 -8 0 -17 -24 -24 -66 -11 -64 -45 -120 -64 -108
-5 3 -9 95 -9 205 l0 199 29 0 c51 0 96 -83 121 -220 19 -107 20 -110 35 -110
13 0 15 31 15 205 l0 205 -185 0 c-102 0 -185 -4 -185 -9Z" fill="currentColor"/>
<path d="M3416 1803 c-9 -78 -86 -1028 -86 -1052 0 -11 -11 -33 -25 -49 -13
-16 -22 -32 -18 -36 3 -3 39 -6 80 -6 74 0 89 10 62 37 -7 7 -11 41 -10 85 3
105 7 118 42 118 27 0 29 -3 29 -37 0 -21 3 -61 6 -89 6 -44 3 -55 -15 -73
-11 -11 -21 -25 -21 -31 0 -6 38 -10 95 -10 78 0 95 3 95 15 0 8 -5 15 -10 15
-6 0 -15 10 -20 23 -7 15 -80 1060 -80 1142 0 3 -27 5 -59 5 l-59 0 -6 -57z
m67 -675 l6 -148 -30 0 c-28 0 -30 2 -25 28 3 15 11 113 18 217 11 172 13 183
19 120 4 -38 9 -136 12 -217Z" fill="currentColor"/>
<path d="M3780 1846 c0 -7 7 -19 15 -26 13 -11 15 -85 15 -560 0 -475 -2 -549
-15 -560 -8 -7 -15 -19 -15 -26 0 -11 19 -14 80 -14 44 0 80 3 80 7 0 4 -9 16
-20 28 -20 21 -20 33 -18 380 l3 359 55 -385 56 -384 57 -3 57 -3 0 574 c0
488 2 576 15 593 8 10 15 22 15 27 0 4 -34 7 -75 7 -41 0 -75 -3 -75 -7 0 -5
7 -17 15 -27 13 -17 15 -70 14 -320 l-1 -301 -18 125 c-10 69 -30 216 -46 328
l-27 202 -83 0 c-65 0 -84 -3 -84 -14Z" fill="currentColor"/>
<path d="M4337 1793 c-4 -38 -7 -135 -7 -216 0 -135 2 -148 17 -145 13 2 20
21 29 81 14 89 50 213 64 222 7 4 10 -169 10 -499 l0 -504 -25 -30 c-14 -17
-25 -33 -25 -36 0 -3 41 -6 90 -6 95 0 104 5 75 44 -13 17 -15 97 -15 529 0
308 4 506 9 502 15 -9 42 -99 60 -203 13 -75 21 -98 34 -100 16 -3 17 13 15
210 l-3 213 -161 3 -161 2 -6 -67Z" fill="currentColor"/>
<path d="M4916 1848 c-3 -7 -25 -265 -50 -573 -42 -524 -46 -561 -65 -577 -38
-30 -25 -38 59 -38 84 0 95 7 64 41 -14 16 -15 31 -8 106 l9 88 30 0 30 0 3
-91 c2 -72 0 -94 -13 -104 -8 -7 -15 -19 -15 -26 0 -11 20 -14 90 -14 95 0
106 6 73 42 -14 15 -21 103 -50 576 -19 306 -36 563 -38 570 -3 8 -24 12 -60
12 -36 0 -57 -4 -59 -12z m63 -765 l1 -103 -25 0 c-19 0 -25 5 -25 23 1 19 26
342 32 402 3 31 15 -207 17 -322Z" fill="currentColor"/>
<path d="M5750 1845 c0 -8 4 -15 8 -15 21 0 34 -65 72 -346 37 -277 40 -319
40 -531 0 -215 -1 -232 -20 -256 -11 -14 -20 -28 -20 -31 0 -3 43 -6 95 -6 52
0 95 3 95 7 0 3 -8 15 -17 26 -16 17 -18 46 -21 227 -3 194 -1 232 38 547 35
293 43 340 60 355 36 30 24 38 -60 38 -64 0 -80 -3 -80 -15 0 -8 4 -15 9 -15
21 0 22 -49 5 -211 -9 -93 -18 -168 -20 -167 -1 2 -10 84 -20 182 -16 166 -16
180 0 191 35 26 17 35 -74 35 -73 0 -90 -3 -90 -15Z" fill="currentColor"/>
<path d="M6090 730 c0 -5 5 -10 10 -10 6 0 10 -13 10 -30 0 -16 5 -30 10 -30
6 0 10 14 10 30 0 17 5 30 11 30 5 0 7 5 4 10 -3 6 -17 10 -31 10 -13 0 -24
-4 -24 -10Z" fill="currentColor"/>
<path d="M6161 698 c0 -30 3 -37 8 -24 7 18 8 18 14 3 8 -22 24 -22 30 1 4 16
5 16 6 0 2 -33 21 -18 21 16 0 45 -17 55 -31 19 l-11 -28 -14 28 c-20 37 -24
34 -23 -15Z" fill="currentColor"/>
<path d="M390 545 l0 -35 2930 0 2930 0 0 35 0 35 -2930 0 -2930 0 0 -35Z" fill="currentColor"/>
</g>
</svg>
