<svg xmlns="http://www.w3.org/2000/svg" viewBox="0 0 1080 1080" class="css-z4f4li"><g><g><path fill="#FFFFFF" d="M710.3,74.8c-6,0-11.9,0.2-17.6,0.6V0H387.5v76.5c-10.4-1.2-21.5-1.8-33.2-1.8C249,74.8,191,131.6,191,235 v96h133.4v-98.9c0-17.3,2.1-35.8,27-35.8c10.7,0,24,0,24,33.8v54.6c0,51.5-3.6,68.4-36.6,103.2l-62.4,66.3 c-65.2,69.4-87.3,115.8-87.3,183.6v137.9h198.4v240c5.5,2.6,11.1,5,16.7,7.4l135.9,57.6l135.9-57.6c5.6-2.4,11.2-4.9,16.7-7.4 V782.9c5.8,0.5,11.6,0.6,17.6,0.6c113.2,0,180.8-72.7,180.8-194.5V269.2C891.1,147.4,823.5,74.8,710.3,74.8z M499.6,294.6 c0,66.3-12.7,105.3-70.2,166.8l-41.9,44.2l-29.3,30.9c-28.3,30.2-46.8,49.7-46.8,101.5v31.2h182.4v90.7H205V637.9 c0-65.4,22.4-108.3,82.9-172.7l62.4-66.3c22-23.2,32.4-40.2,37.1-62.3c3.1-14.2,3.8-30.5,3.8-51.9v-54.6c0-11.2-1.4-19.9-3.8-26.8 c-6.5-18.3-20.5-22.9-36.1-22.9c-23.4,0-43,11.7-43,51.7V315H207v-80c0-92.7,49.7-144.4,147.2-144.4c11.8,0,22.9,0.6,33.2,1.9 c76.5,9.5,112.1,54.2,112.1,137.6V294.6z M875.1,589.1c0,102.5-51.7,178.5-164.8,178.5c-1.7,0-3.5,0-5.2-0.1 c-1.7,0-3.5-0.1-5.1-0.2c-1.5-0.1-3-0.1-4.5-0.2c-0.9-0.1-1.9-0.1-2.8-0.2c-1.7-0.1-3.3-0.3-4.9-0.5c-1.2-0.1-2.3-0.2-3.5-0.4 c-2.6-0.3-5.1-0.6-7.7-1.1c-3.7-0.5-7.2-1.2-10.6-2c-1.4-0.3-2.8-0.6-4.2-1c-1.4-0.3-2.8-0.7-4.1-1c-2.7-0.7-5.4-1.5-8-2.4 c-1.9-0.6-3.8-1.3-5.7-2c-0.9-0.4-1.8-0.7-2.8-1.1c-1.3-0.5-2.6-1-3.9-1.6c-3.4-1.4-6.6-2.9-9.7-4.6c-1.1-0.6-2.3-1.2-3.4-1.8 c-1.3-0.7-2.6-1.4-3.9-2.2c-0.8-0.5-1.6-0.9-2.4-1.4c-4.5-2.8-8.7-5.7-12.7-8.9c-1.9-1.5-3.9-3.1-5.7-4.8c-1.8-1.6-3.7-3.3-5.4-5 c-1.6-1.6-3.2-3.3-4.8-5c-1.8-1.9-3.5-3.9-5.1-6c-0.8-0.9-1.5-1.9-2.2-2.8c-2.3-2.9-4.5-6-6.5-9.2c-0.6-1-1.3-2-1.9-3 c-0.4-0.6-0.7-1.3-1.2-1.9c-0.5-0.8-1-1.7-1.5-2.6c-3.5-6.2-6.7-12.8-9.4-19.6c-0.5-1.2-0.9-2.4-1.4-3.6 c-1.4-3.8-2.8-7.6-3.9-11.5c-0.7-2.4-1.5-4.9-2.1-7.4c-1.7-6.5-3.1-13.3-4.3-20.2c-0.2-1.2-0.4-2.5-0.6-3.8 c-0.2-1.1-0.3-2.2-0.5-3.3c-0.2-1.2-0.3-2.4-0.5-3.6c-0.1-0.6-0.2-1.3-0.2-2c-0.2-1.4-0.3-2.9-0.5-4.3c-0.3-2.9-0.5-5.8-0.7-8.7 c-0.2-2.8-0.3-5.6-0.4-8.4c-0.1-1.2-0.1-2.5-0.1-3.8c0-1.9-0.1-3.8-0.1-5.8V269.2c0-1.9,0-3.9,0.1-5.8c0-1.3,0-2.5,0.1-3.8 c0.1-2.8,0.2-5.6,0.4-8.4c0.2-2.9,0.4-5.9,0.7-8.8c0.1-1.5,0.3-2.9,0.5-4.3c0.1-0.6,0.1-1.2,0.2-1.8c0.2-1.3,0.3-2.6,0.5-3.9 c0.2-1.1,0.3-2.3,0.5-3.4c0.2-1.2,0.4-2.4,0.6-3.7c1.1-6.9,2.6-13.7,4.3-20.2c0.7-2.5,1.4-5,2.1-7.4c2.1-7,4.6-13.7,7.4-20.2 c0.5-1,0.9-2,1.4-3c1.7-3.7,3.6-7.2,5.5-10.7c0.6-1.1,1.3-2.2,1.9-3.3c1.4-2.3,2.8-4.6,4.3-6.8c0.6-0.9,1.3-1.8,1.9-2.8 c6.1-8.7,13.2-16.6,21.2-23.6c1.5-1.3,3-2.6,4.6-3.8c2.2-1.8,4.5-3.5,6.8-5.1c0.7-0.5,1.5-1,2.2-1.5c0.8-0.6,1.7-1.1,2.5-1.6 c0.9-0.6,1.8-1.2,2.7-1.7c2.6-1.6,5.2-3.1,8-4.5c0.9-0.5,1.8-0.9,2.8-1.4c0.7-0.4,1.4-0.7,2.2-1c1-0.5,2-1,3-1.4 c0.9-0.4,1.8-0.8,2.7-1.2c0.9-0.4,1.8-0.8,2.8-1.1c1.8-0.7,3.8-1.5,5.7-2.1c1.3-0.5,2.6-0.9,3.9-1.3c7.8-2.5,16.1-4.5,24.9-6 c1.2-0.2,2.4-0.4,3.6-0.5c2.4-0.4,4.9-0.7,7.4-0.9c1.5-0.2,2.9-0.3,4.4-0.5c0.9-0.1,1.8-0.2,2.7-0.2c0.9-0.1,1.8-0.1,2.8-0.2 c1.5-0.1,3-0.2,4.5-0.2c1.7-0.1,3.4-0.1,5.1-0.2c1.7,0,3.5-0.1,5.2-0.1c113.1,0,164.8,75.1,164.8,178.5V589.1z"></path><path fill="#008C45" d="M191,235v96h133.4v-98.9c0-17.3,2.1-35.8,27-35.8c10.7,0,24,0,24,33.8v54.6c0,51.5-3.6,68.4-36.6,103.2 l-62.4,66.3c-65.2,69.4-87.3,115.8-87.3,183.6v137.9h198.4v240C201.8,929.3,82.2,742.8,82.2,536.9V0h305.2v76.5 c-10.4-1.2-21.5-1.8-33.2-1.8C249,74.8,191,131.6,191,235z"></path><path fill="#CD212A" d="M997.9,0v536.9c0,205.9-119.5,392.4-305.2,478.8V782.9c5.8,0.5,11.6,0.6,17.6,0.6 c113.2,0,180.8-72.7,180.8-194.5V269.2c0-121.7-67.6-194.4-180.8-194.4c-6,0-11.9,0.2-17.6,0.6V0H997.9z"></path></g><g><g><path fill="#001EA0" d="M311.3,637.9v31.2h182.4v90.7H205V637.9c0-65.4,22.4-108.3,82.9-172.7l62.4-66.3 c22-23.2,32.4-40.2,37.1-62.3c3.1-14.2,3.8-30.5,3.8-51.9v-54.6c0-11.2-1.4-19.9-3.8-26.8c-6.5-18.3-20.5-22.9-36.1-22.9 c-23.4,0-43,11.7-43,51.7V315H207v-80c0-92.7,49.7-144.4,147.2-144.4c11.8,0,22.9,0.6,33.2,1.9c76.5,9.5,112.1,54.2,112.1,137.6 v64.4c0,66.3-12.7,105.3-70.2,166.8l-41.9,44.2l-29.3,30.9C329.9,566.7,311.3,586.2,311.3,637.9z"></path></g><g><path fill="#001EA0" d="M710.3,90.7c-1.7,0-3.5,0-5.2,0.1c-1.7,0-3.5,0.1-5.1,0.2c-1.5,0.1-3,0.1-4.5,0.2 c-0.9,0.1-1.9,0.1-2.8,0.2c-0.9,0.1-1.8,0.1-2.7,0.2c-1.5,0.1-2.9,0.3-4.4,0.5c-2.5,0.3-5,0.5-7.4,0.9c-1.2,0.2-2.4,0.4-3.6,0.5 c-8.8,1.5-17,3.5-24.9,6c-1.3,0.4-2.6,0.8-3.9,1.3c-2,0.7-3.9,1.4-5.7,2.1c-0.9,0.4-1.8,0.7-2.8,1.1c-0.9,0.4-1.8,0.7-2.7,1.2 c-1,0.4-2,0.9-3,1.4c-0.7,0.3-1.5,0.6-2.2,1c-0.9,0.5-1.9,0.9-2.8,1.4c-2.8,1.4-5.4,2.9-8,4.5c-0.9,0.5-1.8,1.1-2.7,1.7 c-0.8,0.5-1.7,1-2.5,1.6c-0.7,0.5-1.5,1-2.2,1.5c-2.4,1.6-4.6,3.3-6.8,5.1c-1.6,1.2-3.1,2.5-4.6,3.8c-8,7-15,14.9-21.2,23.6 c-0.6,0.9-1.3,1.8-1.9,2.8c-1.5,2.2-2.9,4.5-4.3,6.8c-0.6,1.1-1.3,2.2-1.9,3.3c-2,3.5-3.8,7.1-5.5,10.7c-0.5,1-0.9,2-1.4,3 c-2.8,6.4-5.3,13.2-7.4,20.2c-0.7,2.4-1.5,4.9-2.1,7.4c-1.7,6.5-3.1,13.3-4.3,20.2c-0.2,1.2-0.4,2.4-0.6,3.7 c-0.2,1.1-0.3,2.2-0.5,3.4c-0.2,1.3-0.3,2.6-0.5,3.9c-0.1,0.6-0.1,1.2-0.2,1.8c-0.2,1.4-0.3,2.9-0.5,4.3 c-0.3,2.9-0.5,5.8-0.7,8.8c-0.2,2.8-0.3,5.6-0.4,8.4c-0.1,1.3-0.1,2.5-0.1,3.8c0,1.9-0.1,3.9-0.1,5.8v319.9c0,1.9,0,3.9,0.1,5.8 c0,1.3,0,2.5,0.1,3.8c0.1,2.8,0.2,5.6,0.4,8.4c0.2,2.9,0.4,5.8,0.7,8.7c0.1,1.4,0.3,2.9,0.5,4.3c0.1,0.6,0.1,1.3,0.2,2 c0.1,1.2,0.3,2.4,0.5,3.6c0.1,1.1,0.3,2.2,0.5,3.3c0.2,1.3,0.4,2.5,0.6,3.8c1.1,6.9,2.6,13.7,4.3,20.2c0.7,2.5,1.4,5,2.1,7.4 c1.2,3.9,2.5,7.8,3.9,11.5c0.5,1.2,0.9,2.4,1.4,3.6c2.8,6.8,5.9,13.4,9.4,19.6c0.5,0.8,1,1.7,1.5,2.6c0.4,0.6,0.8,1.3,1.2,1.9 c0.6,1,1.3,2,1.9,3c2,3.2,4.2,6.2,6.5,9.2c0.7,1,1.5,1.9,2.2,2.8c1.6,2.1,3.4,4.1,5.1,6c1.6,1.7,3.1,3.3,4.8,5 c1.7,1.7,3.6,3.4,5.4,5c1.8,1.7,3.8,3.2,5.7,4.8c4,3.2,8.2,6.1,12.7,8.9c0.8,0.5,1.6,1,2.4,1.4c1.3,0.8,2.5,1.5,3.9,2.2 c1.1,0.6,2.3,1.2,3.4,1.8c3.1,1.7,6.4,3.2,9.7,4.6c1.3,0.5,2.6,1.1,3.9,1.6c0.9,0.4,1.8,0.7,2.8,1.1c1.8,0.7,3.8,1.3,5.7,2 c2.6,0.8,5.3,1.6,8,2.4c1.3,0.4,2.7,0.7,4.1,1c1.4,0.4,2.8,0.7,4.2,1c3.5,0.8,7,1.4,10.6,2c2.5,0.4,5.1,0.7,7.7,1.1 c1.2,0.1,2.3,0.3,3.5,0.4c1.6,0.2,3.3,0.3,4.9,0.5c0.9,0.1,1.8,0.1,2.8,0.2c1.5,0.1,3,0.2,4.5,0.2c1.7,0.1,3.4,0.1,5.1,0.2 c1.7,0,3.5,0.1,5.2,0.1c113.1,0,164.8-76.1,164.8-178.5V269.2C875.1,165.8,823.4,90.7,710.3,90.7z M763.9,606.7 c0,40-14.6,68.3-53.6,68.3c-1.2,0-2.4,0-3.5-0.1c-0.9,0-1.7-0.1-2.6-0.2c-0.4,0-0.8-0.1-1.2-0.1c-1-0.1-1.9-0.2-2.8-0.4 c-0.8-0.1-1.5-0.2-2.3-0.4c-1.8-0.4-3.6-0.8-5.3-1.3c0,0-0.1,0-0.1,0c-0.7-0.2-1.5-0.5-2.2-0.7c-0.7-0.3-1.5-0.5-2.2-0.9 c-2.2-0.9-4.2-1.9-6.1-3.2c-0.6-0.4-1.3-0.8-1.9-1.3c-0.6-0.4-1.1-0.8-1.7-1.2c-0.2-0.1-0.3-0.2-0.4-0.4c-0.5-0.4-1-0.8-1.4-1.2 c-0.6-0.5-1.1-1-1.6-1.5c-0.6-0.5-1.1-1.1-1.6-1.6c-0.5-0.5-1-1.1-1.5-1.7c-0.5-0.6-0.9-1.2-1.4-1.8c-1.4-1.8-2.6-3.7-3.7-5.8 c-0.4-0.7-0.7-1.4-1.1-2.1c-0.3-0.6-0.5-1.2-0.8-1.7c-0.4-0.9-0.8-1.7-1.1-2.7c-0.3-0.8-0.6-1.5-0.9-2.3c-0.7-1.9-1.3-3.9-1.9-6 c-0.2-0.7-0.4-1.5-0.6-2.2c-0.3-1-0.5-2.1-0.7-3.1c-0.2-0.8-0.3-1.6-0.5-2.4c-0.3-1.7-0.6-3.5-0.8-5.3c-0.1-0.7-0.2-1.5-0.3-2.3 c-0.2-2-0.4-4-0.5-6c0-0.7-0.1-1.5-0.1-2.3c-0.1-1-0.1-2-0.1-3c0-1,0-2,0-3.1V251.6c0-1,0-2.1,0-3.1c0-1,0-2,0.1-3 c0-0.8,0.1-1.5,0.1-2.3c0.1-2,0.3-4,0.5-6c0.1-0.7,0.2-1.5,0.3-2.2c0.1-1.3,0.3-2.6,0.5-3.9c0.1-0.5,0.2-1.1,0.3-1.7 c0.2-0.8,0.3-1.5,0.5-2.3c0.2-1.1,0.5-2.2,0.7-3.3c0.2-0.7,0.4-1.5,0.5-2.2c0.5-2,1.2-4,1.8-5.9c0.2-0.6,0.4-1.2,0.7-1.8 c0.2-0.6,0.5-1.3,0.8-1.9c0.3-0.6,0.5-1.2,0.8-1.8c0.2-0.5,0.5-1,0.7-1.5c0.3-0.6,0.6-1.2,1-1.8c1.1-2,2.4-4,3.7-5.8 c0.5-0.6,0.9-1.2,1.4-1.8c0.5-0.6,1-1.2,1.5-1.7c0.5-0.5,1-1.1,1.6-1.6c0.5-0.5,1.1-1.1,1.6-1.5c0.5-0.4,0.9-0.8,1.4-1.2 c0.1-0.1,0.3-0.3,0.4-0.4c0.5-0.4,1.1-0.8,1.7-1.2c0.8-0.6,1.6-1.1,2.4-1.6c0.5-0.3,0.9-0.6,1.4-0.8c1.3-0.7,2.8-1.5,4.2-2 c0.7-0.3,1.5-0.6,2.2-0.9c0.7-0.3,1.4-0.5,2.2-0.7c0,0,0.1,0,0.1,0c1.3-0.4,2.7-0.8,4-1.1c0.4-0.1,0.8-0.2,1.2-0.3 c0.7-0.2,1.5-0.3,2.3-0.4c0.9-0.2,1.8-0.3,2.8-0.4c0.4-0.1,0.8-0.1,1.2-0.1c0.8-0.1,1.7-0.1,2.6-0.2c1.1-0.1,2.3-0.1,3.5-0.1 c39,0,53.6,28.3,53.6,68.3V606.7z"></path><path fill="#FFFFFF" d="M763.9,251.6v355.1c0,40-14.6,68.3-53.6,68.3c-1.2,0-2.4,0-3.5-0.1c-0.9,0-1.7-0.1-2.6-0.2 c-0.4,0-0.8-0.1-1.2-0.1c-1-0.1-1.9-0.2-2.8-0.4c-0.8-0.1-1.5-0.2-2.3-0.4c-1.8-0.4-3.6-0.8-5.3-1.3c0,0-0.1,0-0.1,0 c-0.7-0.2-1.5-0.5-2.2-0.7c-0.7-0.3-1.5-0.5-2.2-0.9c-2.2-0.9-4.2-1.9-6.1-3.2c-0.6-0.4-1.3-0.8-1.9-1.3 c-0.6-0.4-1.1-0.8-1.7-1.2c-0.2-0.1-0.3-0.2-0.4-0.4c-0.5-0.4-1-0.8-1.4-1.2c-0.6-0.5-1.1-1-1.6-1.5c-0.6-0.5-1.1-1.1-1.6-1.6 c-0.5-0.5-1-1.1-1.5-1.7c-0.5-0.6-0.9-1.2-1.4-1.8c-1.4-1.8-2.6-3.7-3.7-5.8c-0.4-0.7-0.7-1.4-1.1-2.1c-0.3-0.6-0.5-1.2-0.8-1.7 c-0.4-0.9-0.8-1.7-1.1-2.7c-0.3-0.8-0.6-1.5-0.9-2.3c-0.7-1.9-1.3-3.9-1.9-6c-0.2-0.7-0.4-1.5-0.6-2.2c-0.3-1-0.5-2.1-0.7-3.1 c-0.2-0.8-0.3-1.6-0.5-2.4c-0.3-1.7-0.6-3.5-0.8-5.3c-0.1-0.7-0.2-1.5-0.3-2.3c-0.2-2-0.4-4-0.5-6c0-0.7-0.1-1.5-0.1-2.3 c-0.1-1-0.1-2-0.1-3c0-1,0-2,0-3.1V251.6c0-1,0-2.1,0-3.1c0-1,0-2,0.1-3c0-0.8,0.1-1.5,0.1-2.3c0.1-2,0.3-4,0.5-6 c0.1-0.7,0.2-1.5,0.3-2.2c0.1-1.3,0.3-2.6,0.5-3.9c0.1-0.5,0.2-1.1,0.3-1.7c0.2-0.8,0.3-1.5,0.5-2.3c0.2-1.1,0.5-2.2,0.7-3.3 c0.2-0.7,0.4-1.5,0.5-2.2c0.5-2,1.2-4,1.8-5.9c0.2-0.6,0.4-1.2,0.7-1.8c0.2-0.6,0.5-1.3,0.8-1.9c0.3-0.6,0.5-1.2,0.8-1.8 c0.2-0.5,0.5-1,0.7-1.5c0.3-0.6,0.6-1.2,1-1.8c1.1-2,2.4-4,3.7-5.8c0.5-0.6,0.9-1.2,1.4-1.8c0.5-0.6,1-1.2,1.5-1.7 c0.5-0.5,1-1.1,1.6-1.6c0.5-0.5,1.1-1.1,1.6-1.5c0.5-0.4,0.9-0.8,1.4-1.2c0.1-0.1,0.3-0.3,0.4-0.4c0.5-0.4,1.1-0.8,1.7-1.2 c0.8-0.6,1.6-1.1,2.4-1.6c0.5-0.3,0.9-0.6,1.4-0.8c1.3-0.7,2.8-1.5,4.2-2c0.7-0.3,1.5-0.6,2.2-0.9c0.7-0.3,1.4-0.5,2.2-0.7 c0,0,0.1,0,0.1,0c1.3-0.4,2.7-0.8,4-1.1c0.4-0.1,0.8-0.2,1.2-0.3c0.7-0.2,1.5-0.3,2.3-0.4c0.9-0.2,1.8-0.3,2.8-0.4 c0.4-0.1,0.8-0.1,1.2-0.1c0.8-0.1,1.7-0.1,2.6-0.2c1.1-0.1,2.3-0.1,3.5-0.1C749.3,183.3,763.9,211.6,763.9,251.6z"></path></g></g></g></svg>
