<svg class="svg-icon" style="width: 1em; height: 1em;vertical-align: middle;fill: currentColor;overflow: hidden;" viewBox="0 0 1024 1024" version="1.1" xmlns="http://www.w3.org/2000/svg"><path d="M618.666667 117.333333c-76.8 0-138.666667 61.866667-138.666667 138.666667H426.666667v55.04c-29.44 8.96-56.746667 22.186667-81.92 38.826667l414.293333 414.293333A295.168 295.168 0 0 0 810.666667 597.333333c0-135.253333-90.026667-249.6-213.333334-286.293333V256h-53.333333a74.666667 74.666667 0 0 1 74.666667-74.666667A74.666667 74.666667 0 0 1 693.333333 256a96 96 0 0 0 96 96c52.906667 0 95.573333-43.093333 95.573334-96v-32h-63.573334V256c0 17.92-14.506667 32-32 32-17.92 0-32-14.08-32-32 0-76.8-62.293333-138.666667-138.666666-138.666667M145.493333 271.36L85.333333 331.52l151.466667 151.466667C221.866667 517.973333 213.333333 556.373333 213.333333 597.333333c0 164.693333 133.546667 298.666667 298.666667 298.666667 39.253333 0 78.08-8.106667 114.346667-23.466667L777.813333 1024l60.16-60.16L145.493333 271.36z" fill="" /></svg>